<svg xmlns="http://www.w3.org/2000/svg" viewBox="0 0 1400 320" role="img" aria-label="Ornate gold button plate">
<defs>
 <linearGradient id="gOuter" x1="0" y1="0" x2="1" y2="1"><stop offset="0" stop-color="#6d3b04"/><stop offset=".12" stop-color="#e7b94e"/><stop offset=".24" stop-color="#fff0a3"/><stop offset=".43" stop-color="#a86109"/><stop offset=".62" stop-color="#f4ce61"/><stop offset=".82" stop-color="#8d4b05"/><stop offset="1" stop-color="#f2cb5a"/></linearGradient>
 <linearGradient id="gFace" x1="0" y1="0" x2="0" y2="1"><stop offset="0" stop-color="#ffe9a0"/><stop offset=".15" stop-color="#dca43a"/><stop offset=".42" stop-color="#b97614"/><stop offset=".58" stop-color="#e8b84d"/><stop offset=".78" stop-color="#c28423"/><stop offset="1" stop-color="#8a4b06"/></linearGradient>
 <radialGradient id="gCenter" cx="50%" cy="36%" r="72%"><stop offset="0" stop-color="#fff4bf" stop-opacity=".46"/><stop offset=".33" stop-color="#ffd970" stop-opacity=".18"/><stop offset="1" stop-color="#7b4306" stop-opacity="0"/></radialGradient>
 <linearGradient id="gStroke" x1="0" y1="0" x2="1" y2="0"><stop offset="0" stop-color="#8c4f07"/><stop offset=".16" stop-color="#ffe99a"/><stop offset=".50" stop-color="#fff4bd"/><stop offset=".84" stop-color="#d89522"/><stop offset="1" stop-color="#7c4305"/></linearGradient>
 <filter id="shadow" x="-20%" y="-40%" width="140%" height="180%"><feDropShadow dx="0" dy="14" stdDeviation="18" flood-color="#000" flood-opacity=".42"/><feDropShadow dx="0" dy="0" stdDeviation="12" flood-color="#e8b33a" flood-opacity=".22"/></filter>
 <filter id="glow" x="-100%" y="-100%" width="300%" height="300%"><feGaussianBlur stdDeviation="5"/></filter>
</defs>
<g filter="url(#shadow)">
 <path d="M88 20h1224l58 58v164l-58 58H88l-58-58V78z" fill="url(#gOuter)"/>
 <path d="M104 36h1192l46 46v156l-46 46H104l-46-46V82z" fill="#2d1602" opacity=".55"/>
 <path d="M118 49h1164l38 38v146l-38 38H118l-38-38V87z" fill="url(#gOuter)"/>
 <path d="M135 66h1130l28 28v132l-28 28H135l-28-28V94z" fill="url(#gFace)"/>
 <rect x="107" y="66" width="1186" height="188" rx="4" fill="url(#gCenter)" opacity=".8"/>
 <path d="M148 80h1104l22 22v116l-22 22H148l-22-22V102z" fill="none" stroke="#fff2ad" stroke-opacity=".7" stroke-width="3"/>
 <path d="M160 92h1080l18 18v100l-18 18H160l-18-18V110z" fill="none" stroke="#6d3b05" stroke-opacity=".88" stroke-width="3"/>
 <path d="M174 104h1052l12 12v76l-12 12H174l-12-12v-76z" fill="none" stroke="url(#gStroke)" stroke-width="2.3"/>
</g>
<g fill="none" stroke="url(#gStroke)" stroke-width="3" opacity=".95">
 <path d="M160 160h72l30-30 30 30-30 30-30-30h-72"/><path d="M1240 160h-72l-30-30-30 30 30 30 30-30h72"/>
 <path d="M186 117c18 0 30-12 30-30M186 203c18 0 30 12 30 30M1214 117c-18 0-30-12-30-30M1214 203c-18 0-30 12-30 30"/>
</g>
<g fill="#ffe79a"><path d="M262 144l16 16-16 16-16-16z"/><path d="M1138 144l16 16-16 16-16-16z"/></g>
<g fill="#8f5008"><path d="M262 151l9 9-9 9-9-9z"/><path d="M1138 151l9 9-9 9-9-9z"/></g>
<g opacity=".85">
 <ellipse cx="700" cy="55" rx="170" ry="18" fill="#fff6c7" opacity=".18" filter="url(#glow)"/>
 <path d="M700 24v62M669 55h62" stroke="#fff3b2" stroke-width="3"/>
 <circle cx="700" cy="55" r="6" fill="#fff7d1"/>
 <path d="M92 160h40M1268 160h40" stroke="#fff0a0" stroke-width="3"/>
</g>
</svg>
